<?xml version="1.0" standalone="no"?>
<!DOCTYPE svg PUBLIC "-//W3C//DTD SVG 20010904//EN"
 "http://www.w3.org/TR/2001/REC-SVG-20010904/DTD/svg10.dtd">
<svg version="1.0" xmlns="http://www.w3.org/2000/svg"
 width="100.000000pt" height="100.000000pt" viewBox="0 0 100.000000 100.000000"
 preserveAspectRatio="xMidYMid meet">
<metadata>
Created by potrace 1.14, written by Peter Selinger 2001-2017
</metadata>
<g transform="translate(0.000000,100.000000) scale(0.100000,-0.100000)"
fill="#000000" stroke="none">
<path d="M346 896 c-146 -60 -240 -178 -267 -334 -20 -115 -3 -126 189 -120
80 2 112 0 112 -9 0 -19 58 -62 93 -68 46 -9 108 15 132 50 20 30 20 30 118
30 53 0 97 -3 97 -6 0 -3 -7 -27 -16 -52 -11 -32 -36 -68 -77 -110 -79 -80
-133 -101 -245 -95 -128 6 -222 66 -275 174 -22 46 -44 60 -77 49 -87 -28 39
-222 190 -294 71 -34 80 -36 180 -36 93 0 112 4 163 28 59 27 127 75 160 112
62 72 118 253 93 305 -11 25 -13 25 -151 28 l-140 3 -20 29 c-24 36 -54 50
-105 50 -51 0 -81 -14 -105 -51 -20 -29 -21 -29 -119 -29 l-98 0 7 28 c32 132
158 233 300 240 99 5 169 -22 241 -96 30 -30 61 -70 69 -88 18 -42 44 -56 76
-41 33 17 35 47 5 106 -49 96 -122 157 -247 206 -92 36 -179 34 -283 -9z m172
-383 c13 -26 4 -43 -23 -43 -13 0 -25 6 -28 13 -6 17 11 47 28 47 8 0 18 -8
23 -17z"/>
</g>
</svg>
